# AST/ASF file generated using VICON BodyLanguage
# -----------------------------------------------
:version 1.10
:name VICON
:units
  mass 1.0
  length 0.45
  angle deg
:documentation
   .ast/.asf automatically generated from VICON data using
   VICON BodyBuilder and BodyLanguage model FoxedUp or BRILLIANT.MOD
:root
   order TX TY TZ RX RY RZ
   axis XYZ
   position 0 0 0  
   orientation 0 0 0 
:bonedata
  begin
     id 1 
     name lhipjoint
     direction 0.602128 -0.715006 0.355257 
     length 2.21237 
     axis 0 0 0  XYZ
  end
  begin
     id 2 
     name lfemur
     direction 0.34202 -0.939693 0  
     length 6.71649  
     axis 0 0 20  XYZ
    dof rx ry rz
    limits (-160.0 20.0)
           (-70.0 70.0)
           (-60.0 70.0)
  end
  begin
     id 3 
     name ltibia
     direction 0.34202 -0.939693 0   
     length 6.97123   
     axis 0 0 20   XYZ
    dof rx
    limits (-10.0 170.0)
  end
  begin
     id 4 
     name lfoot
     direction 0.0655697 -0.180151 0.981451   
     length 1.80924   
     axis -90 7.62852e-016 20   XYZ
    dof rx rz
    limits (-45.0 90.0)
           (-70.0 20.0)
  end
  begin
     id 5 
     name ltoes
     direction 1.53545e-011 -4.21827e-011 1   
     length 0.916331   
     axis -90 7.62852e-016 20   XYZ
    dof rx
    limits (-90.0 20.0)
  end
  begin
     id 6 
     name rhipjoint
     direction -0.625414 -0.698792 0.347201   
     length 2.2637  
     axis 0 0 0  XYZ 
  end
  begin
     id 7 
     name rfemur
     direction -0.34202 -0.939693 0   
     length 7.07595   
     axis 0 0 -20   XYZ
    dof rx ry rz
    limits (-160.0 20.0)
           (-70.0 70.0)
           (-70.0 60.0)
  end
  begin
     id 8 
     name rtibia
     direction -0.34202 -0.939693 0   
     length 7.22924   
     axis 0 0 -20   XYZ
    dof rx
    limits (-10.0 170.0)
 end
 begin
     id 9 
     name rfoot
     direction -0.0766747 -0.210662 0.974547   
     length 1.98482  
     axis -90 -7.62852e-016 -20   XYZ
    dof rx rz
    limits (-45.0 90.0)
           (-20.0 70.0)
  end
  begin
     id 10 
     name rtoes
     direction -1.53532e-011 -4.21867e-011 1   
     length 0.999842   
     axis -90 -7.62852e-016 -20   XYZ
    dof rx
    limits (-90.0 20.0)
  end
  begin
     id 11 
     name lowerback
     direction -0.0224668 0.997354 -0.0691422   
     length 2.09945   
     axis 0 0 0   XYZ
    dof rx ry rz
    limits (-20.0 45.0)
           (-30.0 30.0)
           (-30.0 30.0)
  end
  begin
     id 12 
     name upperback
     direction 0.0134698 0.998451 -0.0539888   
     length 2.09758   
     axis 0 0 0   XYZ
    dof rx ry rz
    limits (-20.0 45.0)
           (-30.0 30.0)
           (-30.0 30.0)
  end
  begin
     id 13 
     name thorax
     direction 0.0241905 0.99948 -0.0213333   
     length 2.10428   
     axis 0 0 0   XYZ
    dof rx ry rz
    limits (-20.0 45.0)
           (-30.0 30.0)
           (-30.0 30.0)
  end
  begin
     id 14 
     name lowerneck
     direction -0.00866847 0.995978 0.0891737   
     length 1.3959   
     axis 0 0 0   XYZ
    dof rx ry rz
    limits (-20.0 45.0)
           (-30.0 30.0)
           (-30.0 30.0)
  end
  begin
     id 15 
     name upperneck
     direction 0.0680679 0.992203 0.104404   
     length 1.39452   
     axis 0 0 0   XYZ
    dof rx ry rz
    limits (-20.0 45.0)
           (-30.0 30.0)
           (-30.0 30.0)
  end
  begin
     id 16
     name head
     direction 0.0242216 0.999358 0.0264054  
     length 1.40433  
     axis 0 0 0   XYZ
    dof rx ry rz
    limits (-20.0 45.0)
           (-30.0 30.0)
           (-30.0 30.0)
  end
  begin
     id 17 
     name lclavicle
     direction 0.929368 0.362991 -0.0671771  
     length 3.04887  
     axis 0 0 0   XYZ
    dof ry rz
    limits (-20.0 10.0)
           (0.0 20.0)
  end
  begin
     id 18 
     name lhumerus
     direction 1 -4.48967e-011 -7.13741e-028   
     length 4.77195   
     axis -180 -30 -90   XYZ
    dof rx ry rz
    limits (-60.0 90.0)
           (-90.0 90.0)
           (-90.0 90.0)
  end
  begin
     id 19
     name lradius
     direction 1 -4.48977e-011 3.60404e-027   
     length 2.98444   
     axis -180 -30 -90   XYZ
    dof rx
    limits (-10.0 170.0)
  end
  begin
     id 20
     name lwrist
     direction 1 -4.48997e-011 7.54877e-027   
     length 1.49222   
     axis -7.18178e-015 90 90   XYZ
    dof ry
    limits (-180.0 0.0)
 end
  begin
     id 21 
     name lhand
     direction 1 -4.489e-011 1.51105e-026   
     length 0.992285   
     axis -9.63605e-015 90 90   XYZ
    dof rx rz
    limits (-90.0 90.0)
           (-45.0 45.0)
  end
  begin
     id 22 
     name lfingers
     direction 1 -4.48998e-011 3.01948e-026   
     length 0.800006   
     axis -1.92718e-014 90 90   XYZ
    dof rx
    limits (0.0 90.0)
  end
  begin
     id 23
     name lthumb
     direction 0.707107 -6.34881e-011 0.707107   
     length 1.14865   
     axis -90 45 -3.53137e-014   XYZ
    dof rx rz
    limits (-45.0 45.0)
           (-45.0 45.0)
  end
  begin
     id 24 
     name rclavicle
     direction -0.945672 0.324529 0.0196374   
     length 3.4236  
     axis 0 0 0   XYZ 
    dof ry rz
    limits (-10.0 20.0)
           (-20.0 0.0)
  end
  begin
     id 25 
     name rhumerus
     direction -1 -4.4896e-011 1.02757e-029  
     length 4.62052   
     axis -180 30 90   XYZ
    dof rx ry rz
    limits (-90.0 60.0)
           (-90.0 90.0)
           (-90.0 90.0)
  end
  begin
     id 26 
     name rradius
     direction -1 -4.48982e-011 3.85962e-027   
     length 2.95332   
     axis -180 30 90   XYZ
    dof rx
    limits (-10.0 170.0)
  end
  begin
     id 27 
     name rwrist
     direction -1 -4.48961e-011 7.55118e-027   
     length 1.47666   
     axis -7.18178e-015 -90 -90   XYZ
    dof ry
    limits (-180.0 0.0)
  end
  begin
     id 28
     name rhand
     direction -1 -4.48984e-011 1.50994e-026   
     length 0.990956   
     axis -9.63605e-015 -90 -90   XYZ
    dof rx rz
    limits (-90.0 90.0)
           (-45.0 45.0)
  end
  begin
     id 29
     name rfingers
     direction -1 -4.4892e-011 3.02158e-026   
     length 0.798934   
     axis -1.92718e-014 -90 -90   XYZ
    dof rx
    limits (0.0 90.0)
  end
  begin
     id 30
     name rthumb
     direction -0.707107 -6.34916e-011 0.707107   
     length 1.14711   
     axis -90 -45 3.53137e-014   XYZ
    dof rx rz
    limits (-45.0 45.0)
           (-45.0 45.0)
  end
:hierarchy
  begin
    root lhipjoint rhipjoint lowerback
    lhipjoint lfemur
    lfemur ltibia
    ltibia lfoot
    lfoot ltoes
    rhipjoint rfemur
    rfemur rtibia
    rtibia rfoot
    rfoot rtoes
    lowerback upperback
    upperback thorax
    thorax lowerneck lclavicle rclavicle
    lowerneck upperneck
    upperneck head
    lclavicle lhumerus
    lhumerus lradius
    lradius lwrist
    lwrist lhand lthumb
    lhand lfingers
    rclavicle rhumerus
    rhumerus rradius
    rradius rwrist
    rwrist rhand rthumb
    rhand rfingers
  end

#!OML:ASF H:\ManfredObstacles\Project 1\Capture day 1\Session 1\Male.ASF
:FULLY-SPECIFIED
:DEGREES
32
root -0.244864 16.2337 31.696 -168.749 -10.9855 -176.568
lowerback -11.5811 -2.15535 -1.31671
upperback 1.61216 -2.95381 2.64207
thorax 8.44514 -1.59017 3.00069
lowerneck 1.78838 -2.60191 -4.39042
upperneck -7.90301 -3.37781 8.55525
head -2.64751 -1.9486 3.72246
rclavicle -5.46658e-016 -1.39149e-014
rhumerus -38.224 -29.4203 -69.6191
rradius 24.1284
rwrist 35.7291
rhand -5.12748 -11.3054
rfingers 7.12502
rthumb 20.6709 -40.2246
lclavicle -5.46658e-016 -1.39149e-014
lhumerus -25.447 7.13246 88.628
lradius 17.3858
lwrist -31.1597
lhand -8.43436 9.08506
lfingers 7.12502
lthumb 17.4909 38.3182
rfemur -29.8721 -6.42003 22.0424
rtibia 27.3163
rfoot -11.6519 9.07333
rtoes 16.2249
lfemur -1.15781 -4.74028 -17.1692
ltibia 4.12599
lfoot -11.4167 -0.620684
ltoes -23.4306
33
root -0.236961 16.235 31.6843 -168.665 -11.0112 -176.407
lowerback -11.6207 -2.16448 -1.21128
upperback 1.62659 -2.99449 2.73938
thorax 8.48654 -1.61005 3.03583
lowerneck 1.85467 -2.59862 -4.39094
upperneck -8.06412 -3.37436 8.49634
head -2.71531 -1.94967 3.70905
rclavicle -3.516e-015 8.54774e-015
rhumerus -38.0539 -29.5305 -69.5693
rradius 23.9154
rwrist 35.9516
rhand -5.38116 -11.1691
rfingers 7.12502
rthumb 20.4272 -40.1146
lclavicle -3.516e-015 8.54774e-015
lhumerus -25.3648 7.3269 88.6224
lradius 17.3061
lwrist -31.3793
lhand -8.37926 9.04974
lfingers 7.12502
lthumb 17.5439 38.2782
rfemur -29.938 -6.30816 22.2336
rtibia 27.284
rfoot -11.6203 9.02671
rtoes 16.7449
lfemur -1.31336 -4.72974 -16.9377
ltibia 4.23446
lfoot -11.508 -0.621366
ltoes -23.3084
34
root -0.229106 16.2375 31.6724 -168.57 -11.0547 -176.356
lowerback -11.633 -2.1685 -1.20078
upperback 1.63063 -3.00848 2.7944
thorax 8.50179 -1.61909 3.08561
lowerneck 1.79349 -2.63305 -4.2908
upperneck -8.04591 -3.4232 8.31862
head -2.69682 -1.96823 3.62554
rclavicle 2.37423e-014 3.77691e-015
rhumerus -37.9983 -29.4528 -69.6202
rradius 23.9717
rwrist 35.7793
rhand -5.45822 -11.1825
rfingers 7.12502
rthumb 20.3531 -40.1359
lclavicle 2.37423e-014 3.77691e-015
lhumerus -25.261 7.21787 88.7736
lradius 17.3152
lwrist -31.275
lhand -8.26982 9.43549
lfingers 7.12502
lthumb 17.6492 38.6545
rfemur -29.978 -6.20115 22.2995
rtibia 27.2318
rfoot -11.5958 8.95351
rtoes 17.507
lfemur -1.57311 -4.76222 -16.8097
ltibia 4.54192
lfoot -11.6681 -0.652508
ltoes -23.2044
35
root -0.222213 16.2353 31.6619 -168.54 -11.0591 -176.265
lowerback -11.5458 -2.11626 -1.0743
upperback 1.62504 -2.95779 2.7958
thorax 8.43519 -1.58843 3.02764
lowerneck 1.71812 -2.67243 -4.23863
upperneck -7.92394 -3.47507 8.31079
head -2.63832 -1.99107 3.60736
rclavicle -4.96837e-014 1.44119e-014
rhumerus -38.1207 -29.3938 -69.6973
rradius 24.1918
rwrist 35.4804
rhand -5.35932 -11.2753
rfingers 7.12502
rthumb 20.4481 -40.2186
lclavicle -4.96837e-014 1.44119e-014
lhumerus -25.1875 7.09537 88.8232
lradius 17.3212
lwrist -31.252
lhand -8.25565 9.46434
lfingers 7.12502
lthumb 17.6628 38.6821
rfemur -29.9888 -6.12925 22.4241
rtibia 27.2094
rfoot -11.6005 8.93488
rtoes 17.6676
lfemur -1.61404 -4.74548 -16.6684
ltibia 4.57311
lfoot -11.6875 -0.622717
ltoes -23.668
36
root -0.218253 16.2339 31.6473 -168.513 -11.0181 -176.203
lowerback -11.4764 -2.05125 -0.927051
upperback 1.61826 -2.89066 2.77779
thorax 8.37452 -1.54806 2.93971
lowerneck 1.65125 -2.69545 -4.33465
upperneck -7.74223 -3.50448 8.44984
head -2.55979 -2.00206 3.66705
rclavicle 2.73329e-014 9.14409e-015
rhumerus -38.2806 -29.4234 -69.6732
rradius 24.37
rwrist 35.35
rhand -5.16888 -11.3148
rfingers 7.12502
rthumb 20.6311 -40.2384
lclavicle 2.73329e-014 9.14409e-015
lhumerus -25.1389 6.75836 88.8755
lradius 17.3142
lwrist -30.9326
lhand -8.19314 9.45319
lfingers 7.12502
lthumb 17.723 38.6655
rfemur -30.0012 -6.23488 22.5579
rtibia 27.2172
rfoot -11.5856 9.09193
rtoes 17.624
lfemur -1.55222 -4.68694 -16.5838
ltibia 4.47053
lfoot -11.683 -0.583186
ltoes -24.1225
